<?xml version="1.0" encoding="UTF-8"?>
<svg version="1.1" xmlns="http://www.w3.org/2000/svg" width="67" height="81">
<path d="M0 0 C4.95 0 9.9 0 15 0 C15.33 1.65 15.66 3.3 16 5 C16.99 4.34 17.98 3.68 19 3 C23.35925198 3.22943431 26.06226136 4.81045519 29 8 C29.5625 11.5 29.5625 11.5 29 15 C27.66666667 16.33333333 26.33333333 17.66666667 25 19 C24.71237065 21.01340548 24.43047638 23.03052012 24.27734375 25.05859375 C23.88743721 27.78793951 22.40812645 29.65312258 21 32 C20.13613053 34.7223255 19.70310073 37.14864667 20 40 C22.21939532 43.29671417 22.21939532 43.29671417 25 46 C27.20502756 49.36004199 27.55889763 52.00787404 27 56 C25.43211955 59.04573905 24.81382606 60.23339521 22 62 C17.21479416 62.76116905 12.51729537 62.56270505 7.6875 62.375 C6.37458984 62.34792969 5.06167969 62.32085937 3.70898438 62.29296875 C0.47099021 62.2223216 -2.76366958 62.12370566 -6 62 C-6 61.34 -6 60.68 -6 60 C-7.32 59.67 -8.64 59.34 -10 59 C-11.76263621 54.54702432 -12.36687763 52.10758535 -10.625 47.5625 C-10.08875 46.386875 -9.5525 45.21125 -9 44 C-8.34 44 -7.68 44 -7 44 C-7 43.34 -7 42.68 -7 42 C-6.34 42 -5.68 42 -5 42 C-5.31546641 35.78857524 -5.60510237 31.31375282 -9 26 C-8.979375 24.845 -8.95875 23.69 -8.9375 22.5 C-8.6439746 18.90634593 -8.6439746 18.90634593 -11.0625 16.4375 C-13 14 -13 14 -13.125 11 C-11.5862058 6.89654881 -9.69646988 5.30157558 -6 3 C-2.625 3.1875 -2.625 3.1875 0 4 C0 2.68 0 1.36 0 0 Z M20 6 C20.33 6.66 20.66 7.32 21 8 C21.33 7.34 21.66 6.68 22 6 C21.34 6 20.68 6 20 6 Z M-1 30 C-2.17571451 33.67410785 -2.07366746 37.16929183 -2 41 C0.21370051 39.21342243 0.21370051 39.21342243 0.1953125 36.8359375 C0.17210937 36.02382813 0.14890625 35.21171875 0.125 34.375 C0.10695313 33.55773438 0.08890625 32.74046875 0.0703125 31.8984375 C0.04710937 31.27195312 0.02390625 30.64546875 0 30 C-0.33 30 -0.66 30 -1 30 Z M3 31 C3 33.31 3 35.62 3 38 C3.33 38 3.66 38 4 38 C4 35.69 4 33.38 4 31 C3.67 31 3.34 31 3 31 Z M12 31 C13 34 13 34 13 34 Z M16 32 C16 34.64 16 37.28 16 40 C16.33 40 16.66 40 17 40 C17 37.36 17 34.72 17 32 C16.67 32 16.34 32 16 32 Z M4 39 C5 41 5 41 5 41 Z M8 40 C9 42 9 42 9 42 Z " fill="#707070" transform="translate(27,1)"/>
<path d="M0 0 C0.66 0.33 1.32 0.66 2 1 C2.625 3.5625 2.625 3.5625 3 6 C3.33 5.01 3.66 4.02 4 3 C4.66 3 5.32 3 6 3 C6.33 2.34 6.66 1.68 7 1 C7.33 1.66 7.66 2.32 8 3 C8.78375 2.814375 9.5675 2.62875 10.375 2.4375 C13 2 13 2 15 3 C15.72693904 4.97888961 16.39816251 6.97954558 17 9 C17.66 8.34 18.32 7.68 19 7 C19 7.66 19 8.32 19 9 C20.32 9 21.64 9 23 9 C23 8.34 23 7.68 23 7 C23.99 7.33 24.98 7.66 26 8 C25.67 8.5775 25.34 9.155 25 9.75 C23.72924102 12.19883862 23.72924102 12.19883862 24 16 C24.66 16 25.32 16 26 16 C26.33 14.68 26.66 13.36 27 12 C27.66 13.32 28.32 14.64 29 16 C26.75 18.5625 26.75 18.5625 24 21 C21.9375 20.75 21.9375 20.75 20 20 C17.81296615 20.37907282 17.81296615 20.37907282 16 21 C15.67 20.34 15.34 19.68 15 19 C14.67 19.33 14.34 19.66 14 20 C11.625 20.25 11.625 20.25 9 20 C7.1875 18.5 7.1875 18.5 6 17 C6 18.32 6 19.64 6 21 C8.31 21.33 10.62 21.66 13 22 C12.67 22.66 12.34 23.32 12 24 C6.72 23.34 1.44 22.68 -4 22 C-4 21.34 -4 20.68 -4 20 C-4.66 20 -5.32 20 -6 20 C-7.18325708 15.85860022 -6.64167141 13.8989696 -5 10 C-5.33 9.01 -5.66 8.02 -6 7 C-5.34 7 -4.68 7 -4 7 C-3.67 6.34 -3.34 5.68 -3 5 C-2.34 5.66 -1.68 6.32 -1 7 C-0.67 4.69 -0.34 2.38 0 0 Z M11 3 C12 5 12 5 12 5 Z " fill="#767676" transform="translate(24,38)"/>
<path d="M0 0 C0.33 1.32 0.66 2.64 1 4 C-1.64 3.67 -4.28 3.34 -7 3 C-6.505 4.11375 -6.01 5.2275 -5.5 6.375 C-4 10 -4 10 -4 12 C-4.66 12 -5.32 12 -6 12 C-6.33 10.02 -6.66 8.04 -7 6 C-7.66 6 -8.32 6 -9 6 C-9 6.66 -9 7.32 -9 8 C-8.34 8.66 -7.68 9.32 -7 10 C-7.66 11.32 -8.32 12.64 -9 14 C-8.34 14.33 -7.68 14.66 -7 15 C-7 14.34 -7 13.68 -7 13 C-6.34 13 -5.68 13 -5 13 C-5.33 15.31 -5.66 17.62 -6 20 C-3.85950154 17.85950154 -2.35372208 15.70744416 -1 13 C-0.34 13 0.32 13 1 13 C1.33 12.01 1.66 11.02 2 10 C4.9603645 13.36405057 6.03380551 16.65212478 7 21 C6.67 21.66 6.34 22.32 6 23 C5.34 23 4.68 23 4 23 C4.66 24.98 5.32 26.96 6 29 C5.34 29.33 4.68 29.66 4 30 C3.53476937 31.89533342 3.53476937 31.89533342 3.375 34.0625 C3.25125 35.361875 3.1275 36.66125 3 38 C2.34 38 1.68 38 1 38 C0.67 39.32 0.34 40.64 0 42 C-0.33 42 -0.66 42 -1 42 C-1 39.69 -1 37.38 -1 35 C-1.66 35 -2.32 35 -3 35 C-3 37.64 -3 40.28 -3 43 C-4.5625 41.875 -4.5625 41.875 -6 40 C-5.68143549 37.99759451 -5.34578768 35.99788438 -5 34 C-5.87006429 30.05124668 -6.75364432 27.36953351 -9 24 C-8.95875 22.88625 -8.9175 21.7725 -8.875 20.625 C-8.63985017 16.92302089 -8.63985017 16.92302089 -11.0625 14.4375 C-13 12 -13 12 -13.125 9 C-11.5862058 4.89654881 -9.69646988 3.30157558 -6 1 C-2.625 1.1875 -2.625 1.1875 0 2 C0 1.34 0 0.68 0 0 Z " fill="#494949" transform="translate(27,3)"/>
<path d="M0 0 C4.875 0.875 4.875 0.875 6 2 C8.98889359 2.45765667 11.98969648 2.70320951 15 3 C14.67 5.97 14.34 8.94 14 12 C10 11 10 11 8 10 C8 10.66 8 11.32 8 12 C7.01 12 6.02 12 5 12 C5 11.01 5 10.02 5 9 C4.34 9 3.68 9 3 9 C2.67 9.66 2.34 10.32 2 11 C1.67 11.33 1.34 11.66 1 12 C-0.32 12 -1.64 12 -3 12 C-3 11.34 -3 10.68 -3 10 C-3.99 10 -4.98 10 -6 10 C-6 9.34 -6 8.68 -6 8 C-6.99 8 -7.98 8 -9 8 C-9 8.66 -9 9.32 -9 10 C-8.34 10 -7.68 10 -7 10 C-7 10.66 -7 11.32 -7 12 C-8.62463842 12.05395478 -10.24978541 12.09277195 -11.875 12.125 C-12.77992187 12.14820312 -13.68484375 12.17140625 -14.6171875 12.1953125 C-17 12 -17 12 -19 10 C-19 7.69 -19 5.38 -19 3 C-9.1 2.505 -9.1 2.505 1 2 C0.67 1.34 0.34 0.68 0 0 Z M7 8 C8 10 8 10 8 10 Z M-16 9 C-15.34 9.66 -14.68 10.32 -14 11 C-14 10.34 -14 9.68 -14 9 C-14.66 9 -15.32 9 -16 9 Z " fill="#232323" transform="translate(26,66)"/>
<path d="M0 0 C1.98 0 3.96 0 6 0 C6 0.66 6 1.32 6 2 C5.34 2 4.68 2 4 2 C2.89441962 6.64343758 2.971028 9.63771021 5 14 C5.99 14.33 6.98 14.66 8 15 C8.33 15.99 8.66 16.98 9 18 C10.98 18 12.96 18 15 18 C15 18.99 15 19.98 15 21 C14.34 21 13.68 21 13 21 C12.67 22.32 12.34 23.64 12 25 C11.34 24.67 10.68 24.34 10 24 C9.67 24.66 9.34 25.32 9 26 C9 25.34 9 24.68 9 24 C8.34 24 7.68 24 7 24 C7.20625 25.03125 7.4125 26.0625 7.625 27.125 C8.01194403 31.1234216 7.51883076 33.33693757 6 37 C3.74816027 32.9185405 4 29.58174564 4 25 C4.66 25 5.32 25 6 25 C6 23.02 6 21.04 6 19 C5.34 18.67 4.68 18.34 4 18 C2.875 15.9375 2.875 15.9375 2 14 C1.01 14.33 0.02 14.66 -1 15 C-1.80212628 16.87387216 -1.80212628 16.87387216 -2.1875 19.0625 C-2.42533203 20.16271484 -2.42533203 20.16271484 -2.66796875 21.28515625 C-2.77753906 21.85105469 -2.88710938 22.41695312 -3 23 C-3.99 23 -4.98 23 -6 23 C-7.2077558 19.37673261 -6.54311128 18.35853631 -5 15 C-5.66 15 -6.32 15 -7 15 C-7 15.66 -7 16.32 -7 17 C-7.99 16.67 -8.98 16.34 -10 16 C-9.34 14.68 -8.68 13.36 -8 12 C-8.99 11.34 -9.98 10.68 -11 10 C-10.34 10 -9.68 10 -9 10 C-9 9.34 -9 8.68 -9 8 C-8.34 8 -7.68 8 -7 8 C-6.67 9.98 -6.34 11.96 -6 14 C-5.34 14 -4.68 14 -4 14 C-4.99 11.03 -5.98 8.06 -7 5 C-4.36 5.33 -1.72 5.66 1 6 C0.67 4.02 0.34 2.04 0 0 Z " fill="#949494" transform="translate(27,1)"/>
<path d="M0 0 C2.97 0 5.94 0 9 0 C9 3.3 9 6.6 9 10 C9.99 9.67 10.98 9.34 12 9 C12.33 9.66 12.66 10.32 13 11 C13.99 11 14.98 11 16 11 C16 12.32 16 13.64 16 15 C15.01 15.495 15.01 15.495 14 16 C14 17.32 14 18.64 14 20 C14.99 20.33 15.98 20.66 17 21 C17 21.66 17 22.32 17 23 C16.34 23 15.68 23 15 23 C15 22.34 15 21.68 15 21 C14.34 21 13.68 21 13 21 C12.34 19.68 11.68 18.36 11 17 C10.67 17.33 10.34 17.66 10 18 C4.1955819 19.01346983 4.1955819 19.01346983 2 19 C1.34 18.34 0.68 17.68 0 17 C0.66 17 1.32 17 2 17 C2 16.34 2 15.68 2 15 C0.68 14.67 -0.64 14.34 -2 14 C-4.21538462 7.72307692 -4.21538462 7.72307692 -3.125 4.0625 C-2.75375 3.381875 -2.3825 2.70125 -2 2 C-1.34 2 -0.68 2 0 2 C0 1.34 0 0.68 0 0 Z " fill="#929292" transform="translate(33,1)"/>
<path d="M0 0 C0.99 0.495 0.99 0.495 2 1 C2 1.99 2 2.98 2 4 C2.99 3.34 3.98 2.68 5 2 C9.35925198 2.22943431 12.06226136 3.81045519 15 7 C15.5625 10.5 15.5625 10.5 15 14 C13 16 13 16 11 18 C10.71255349 20.01212556 10.43065978 22.02792433 10.27734375 24.0546875 C9.88668588 26.79479483 8.43784918 28.66349508 7 31 C6.28076792 34.69523952 6.28076792 34.69523952 6 38 C4.5 36.875 4.5 36.875 3 35 C2.8125 31.8125 2.8125 31.8125 3 29 C3.66 28.67 4.32 28.34 5 28 C5.65213292 25.97536745 5.65213292 25.97536745 6 24 C6.33 24.33 6.66 24.66 7 25 C7.76956136 22.65466049 7.76956136 22.65466049 8 20 C6.66621425 18.1645201 6.66621425 18.1645201 5 17 C5.33 16.01 5.66 15.02 6 14 C6.66 14 7.32 14 8 14 C7.67 12.68 7.34 11.36 7 10 C6.01 10 5.02 10 4 10 C3.01 9.67 2.02 9.34 1 9 C0.67 6.03 0.34 3.06 0 0 Z M6 5 C6.33 5.66 6.66 6.32 7 7 C7.33 6.34 7.66 5.68 8 5 C7.34 5 6.68 5 6 5 Z " fill="#4E4E4E" transform="translate(41,2)"/>
<path d="M0 0 C2.4375 0.375 2.4375 0.375 5 1 C6.71466036 4.42932071 6.05404056 8.21716065 6 12 C3.03 12 0.06 12 -3 12 C-3 11.34 -3 10.68 -3 10 C-3.99 10 -4.98 10 -6 10 C-6.33 10.66 -6.66 11.32 -7 12 C-13.75 11.25 -13.75 11.25 -16 9 C-16 7.02 -16 5.04 -16 3 C-8.08 2.505 -8.08 2.505 0 2 C0 1.34 0 0.68 0 0 Z M2 8 C2 8.66 2 9.32 2 10 C2.66 10 3.32 10 4 10 C4 9.34 4 8.68 4 8 C3.34 8 2.68 8 2 8 Z " fill="#252525" transform="translate(59,66)"/>
<path d="M0 0 C0.66 0.33 1.32 0.66 2 1 C2.38218767 2.65614657 2.71395102 4.32457024 3 6 C3.33 6.66 3.66 7.32 4 8 C4.66 8 5.32 8 6 8 C6 7.34 6 6.68 6 6 C6.99 6.33 7.98 6.66 9 7 C8.67 7.99 8.34 8.98 8 10 C7.01 10 6.02 10 5 10 C4.67 10.99 4.34 11.98 4 13 C4 12.34 4 11.68 4 11 C2.02 11.33 0.04 11.66 -2 12 C-2 13.65 -2 15.3 -2 17 C-0.35 17.33 1.3 17.66 3 18 C2.67 18.66 2.34 19.32 2 20 C0.35 19.67 -1.3 19.34 -3 19 C-3 19.66 -3 20.32 -3 21 C-1.35 21 0.3 21 2 21 C2 21.33 2 21.66 2 22 C0.02 22 -1.96 22 -4 22 C-4 21.34 -4 20.68 -4 20 C-4.66 20 -5.32 20 -6 20 C-7.18325708 15.85860022 -6.64167141 13.8989696 -5 10 C-5.33 9.01 -5.66 8.02 -6 7 C-5.34 7 -4.68 7 -4 7 C-3.67 6.34 -3.34 5.68 -3 5 C-2.34 5.66 -1.68 6.32 -1 7 C-0.67 4.69 -0.34 2.38 0 0 Z " fill="#707070" transform="translate(24,38)"/>
<path d="M0 0 C4 0 4 0 5.8125 1.25 C7 3 7 3 6.6875 5.1875 C6.3471875 6.0846875 6.3471875 6.0846875 6 7 C1.25 8.125 1.25 8.125 -1 7 C-0.67 8.98 -0.34 10.96 0 13 C3.465 12.505 3.465 12.505 7 12 C7 12.66 7 13.32 7 14 C7.66 14 8.32 14 9 14 C9 15.32 9 16.64 9 18 C5.625 18.625 5.625 18.625 2 19 C1.34 18.34 0.68 17.68 0 17 C0.66 17 1.32 17 2 17 C2 16.34 2 15.68 2 15 C0.68 14.67 -0.64 14.34 -2 14 C-4.21538462 7.72307692 -4.21538462 7.72307692 -3.125 4.0625 C-2.75375 3.381875 -2.3825 2.70125 -2 2 C-1.34 2 -0.68 2 0 2 C0 1.34 0 0.68 0 0 Z " fill="#292929" transform="translate(33,1)"/>
<path d="M0 0 C5.875 0.875 5.875 0.875 7 2 C7.45459858 4.65463121 7.70243238 7.32189138 8 10 C7.34 10 6.68 10 6 10 C5.34 12.64 4.68 15.28 4 18 C3.01 18 2.02 18 1 18 C-0.2077558 14.37673261 0.45688872 13.35853631 2 10 C1.34 10 0.68 10 0 10 C0 10.66 0 11.32 0 12 C-0.99 11.67 -1.98 11.34 -3 11 C-2.34 9.68 -1.68 8.36 -1 7 C-1.99 6.34 -2.98 5.68 -4 5 C-3.34 5 -2.68 5 -2 5 C-2 4.34 -2 3.68 -2 3 C-1.34 3 -0.68 3 0 3 C0.33 4.98 0.66 6.96 1 9 C1.66 9 2.32 9 3 9 C2.01 6.03 1.02 3.06 0 0 Z " fill="#A9A9A9" transform="translate(20,6)"/>
<path d="M0 0 C5.14847485 3.91731782 7.4587465 6.36586938 8.4375 12.9375 C7.82211925 17.24516522 6.18077133 19.09581748 3 22 C-0.3125 22.375 -0.3125 22.375 -3 22 C-3 21.34 -3 20.68 -3 20 C-3.66 20 -4.32 20 -5 20 C-5 19.34 -5 18.68 -5 18 C-3.1875 16.9375 -3.1875 16.9375 -1 16 C-0.01 16.33 0.98 16.66 2 17 C4.16343011 14.96731398 4.16343011 14.96731398 6 12 C5.67 11.34 5.34 10.68 5 10 C4.67 10.99 4.34 11.98 4 13 C3.34 13 2.68 13 2 13 C1.67 11.35 1.34 9.7 1 8 C1.66 7.67 2.32 7.34 3 7 C3 6.34 3 5.68 3 5 C2.34 4.67 1.68 4.34 1 4 C1 4.66 1 5.32 1 6 C-0.32 6 -1.64 6 -3 6 C-2.67 5.34 -2.34 4.68 -2 4 C-1.34 4.33 -0.68 4.66 0 5 C0 3.35 0 1.7 0 0 Z " fill="#424242" transform="translate(46,41)"/>
<path d="M0 0 C0 0.66 0 1.32 0 2 C-0.99 2 -1.98 2 -3 2 C-2.74438677 4.3431213 -2.40729228 6.67843403 -2 9 C-1.34 9.33 -0.68 9.66 0 10 C0.75 12.375 0.75 12.375 1 15 C0.01 16.485 0.01 16.485 -1 18 C-3 15 -3 15 -3 11 C-4.7015625 11.0309375 -4.7015625 11.0309375 -6.4375 11.0625 C-10 11 -10 11 -11 10 C-11.04080783 8.00041636 -11.04254356 5.99954746 -11 4 C-10.01 5.485 -10.01 5.485 -9 7 C-8.896875 6.21625 -8.79375 5.4325 -8.6875 4.625 C-7.42677784 -0.18866644 -4.38049352 -0.23678343 0 0 Z " fill="#555555" transform="translate(42,30)"/>
<path d="M0 0 C3.8665284 3.222107 4.88059018 6.14922412 6 11 C5.01 11.33 4.02 11.66 3 12 C1.7018576 13.1490712 1.7018576 13.1490712 1 16 C0.34 14.68 -0.32 13.36 -1 12 C-1.66 12.66 -2.32 13.32 -3 14 C-5.625 13.625 -5.625 13.625 -8 13 C-7.34 11.35 -6.68 9.7 -6 8 C-5.34 8 -4.68 8 -4 8 C-3.34 6.35 -2.68 4.7 -2 3 C-1.34 3 -0.68 3 0 3 C0 2.01 0 1.02 0 0 Z " fill="#5F5F5F" transform="translate(28,13)"/>
<path d="M0 0 C2.31 0 4.62 0 7 0 C7.66 3.3 8.32 6.6 9 10 C11.31 10.33 13.62 10.66 16 11 C15.67 11.66 15.34 12.32 15 13 C10.05 12.01 5.1 11.02 0 10 C0 9.34 0 8.68 0 8 C0.804375 8.020625 1.60875 8.04125 2.4375 8.0625 C4.93354885 8.29633621 4.93354885 8.29633621 6 7 C4.02 7 2.04 7 0 7 C0 4.69 0 2.38 0 0 Z " fill="#BABABA" transform="translate(21,49)"/>
<path d="M0 0 C3 3.75 3 3.75 3 6 C3.66 6 4.32 6 5 6 C5 6.66 5 7.32 5 8 C5.66 8.33 6.32 8.66 7 9 C6.01 10.485 6.01 10.485 5 12 C3.5 10.625 3.5 10.625 2 9 C2 8.34 2 7.68 2 7 C1.67 7 1.34 7 1 7 C0.814375 8.11375 0.62875 9.2275 0.4375 10.375 C-0.2740625 12.169375 -0.2740625 12.169375 -1 14 C-4.625 15.4375 -4.625 15.4375 -8 16 C-9 15 -9 15 -9.0625 11.9375 C-9.041875 10.968125 -9.02125 9.99875 -9 9 C-7.35 9 -5.7 9 -4 9 C-3.67 8.01 -3.34 7.02 -3 6 C-2.34 6 -1.68 6 -1 6 C-0.67 4.02 -0.34 2.04 0 0 Z " fill="#5C5C5C" transform="translate(43,16)"/>
<path d="M0 0 C0.598125 0.350625 1.19625 0.70125 1.8125 1.0625 C1.8125 2.3825 1.8125 3.7025 1.8125 5.0625 C2.4725 5.0625 3.1325 5.0625 3.8125 5.0625 C4.1425 3.7425 4.4725 2.4225 4.8125 1.0625 C5.4725 2.3825 6.1325 3.7025 6.8125 5.0625 C4.5625 7.625 4.5625 7.625 1.8125 10.0625 C-0.25 9.8125 -0.25 9.8125 -2.1875 9.0625 C-4.37453385 9.44157282 -4.37453385 9.44157282 -6.1875 10.0625 C-5.836875 9.52625 -5.48625 8.99 -5.125 8.4375 C-3.89825751 5.32975237 -4.45893569 3.26818297 -5.1875 0.0625 C-2.1875 -0.9375 -2.1875 -0.9375 0 0 Z " fill="#B0B0B0" transform="translate(46.1875,48.9375)"/>
<path d="M0 0 C2 2 2 2 2.25 4.5 C2 7 2 7 0 9 C-2.5 9.25 -2.5 9.25 -5 9 C-7 7 -7 7 -7.125 3.875 C-7.08375 2.92625 -7.0425 1.9775 -7 1 C-4.48718205 -0.25640898 -2.78302919 -0.20872719 0 0 Z " fill="#C0C0C0" transform="translate(38,49)"/>
<path d="M0 0 C0.66 0 1.32 0 2 0 C2.66 0.66 3.32 1.32 4 2 C4.33 1.34 4.66 0.68 5 0 C6.98 0 8.96 0 11 0 C11 2.31 11 4.62 11 7 C8.03 7 5.06 7 2 7 C2 6.34 2 5.68 2 5 C1.01 5 0.02 5 -1 5 C-0.67 3.35 -0.34 1.7 0 0 Z M7 3 C7 3.66 7 4.32 7 5 C7.66 5 8.32 5 9 5 C9 4.34 9 3.68 9 3 C8.34 3 7.68 3 7 3 Z " fill="#3E3E3E" transform="translate(54,71)"/>
<path d="M0 0 C0.33 1.32 0.66 2.64 1 4 C-1.64 3.67 -4.28 3.34 -7 3 C-6.505 4.11375 -6.01 5.2275 -5.5 6.375 C-4 10 -4 10 -4 12 C-4.66 12 -5.32 12 -6 12 C-6.33 10.02 -6.66 8.04 -7 6 C-7.66 6 -8.32 6 -9 6 C-9 6.66 -9 7.32 -9 8 C-8.34 8.66 -7.68 9.32 -7 10 C-7.99 11.485 -7.99 11.485 -9 13 C-10.32 12.34 -11.64 11.68 -13 11 C-12.78191021 7.18342871 -11.98132135 5.98001819 -9.3125 3.125 C-6 1 -6 1 -2.625 1.1875 C-1.75875 1.455625 -0.8925 1.72375 0 2 C0 1.34 0 0.68 0 0 Z " fill="#5E5E5E" transform="translate(27,3)"/>
<path d="M0 0 C3.63 0 7.26 0 11 0 C10.34 0.556875 9.68 1.11375 9 1.6875 C6.74507789 3.84062308 6.74507789 3.84062308 6.75 6.75 C6.8325 7.4925 6.915 8.235 7 9 C1.125 7.125 1.125 7.125 0 6 C-0.04080783 4.00041636 -0.04254356 1.99954746 0 0 Z " fill="#3A3A3A" transform="translate(43,69)"/>
<path d="M0 0 C0.99 0.66 1.98 1.32 3 2 C2.62011958 5.26697157 2.23796376 7.61330888 0.5 10.4375 C-1.35391147 13.60459877 -1.645012 16.37912238 -2 20 C-3.5 18.875 -3.5 18.875 -5 17 C-5.1875 13.8125 -5.1875 13.8125 -5 11 C-4.34 10.67 -3.68 10.34 -3 10 C-2.34786708 7.97536745 -2.34786708 7.97536745 -2 6 C-1.67 6.33 -1.34 6.66 -1 7 C-0.67 4.69 -0.34 2.38 0 0 Z " fill="#3A3A3A" transform="translate(49,20)"/>
<path d="M0 0 C2.97 0 5.94 0 9 0 C8.34 2.31 7.68 4.62 7 7 C6.34 7 5.68 7 5 7 C3.66216607 7.31478446 2.32796291 7.64587656 1 8 C1 7.34 1 6.68 1 6 C0.34 6 -0.32 6 -1 6 C-1 5.34 -1 4.68 -1 4 C-0.01 3.67 0.98 3.34 2 3 C2.33 2.34 2.66 1.68 3 1 C2.01 0.67 1.02 0.34 0 0 Z " fill="#1C1C1C" transform="translate(22,70)"/>
<path d="M0 0 C0.66 0.33 1.32 0.66 2 1 C1.67 1.99 1.34 2.98 1 4 C0.64456573 6.33006911 0.3086247 8.66327016 0 11 C0.66 11 1.32 11 2 11 C2 11.66 2 12.32 2 13 C3.98 13 5.96 13 8 13 C8 13.99 8 14.98 8 16 C6.35 16 4.7 16 3 16 C3 15.34 3 14.68 3 14 C1.68 13.67 0.36 13.34 -1 13 C-3.20925553 6.74044266 -3.20925553 6.74044266 -2.1875 3.125 C-1 1 -1 1 0 0 Z " fill="#2D2D2D" transform="translate(18,47)"/>
<path d="M0 0 C1.98 0 3.96 0 6 0 C6 0.66 6 1.32 6 2 C5.34 2 4.68 2 4 2 C3.15901344 6.01804691 2.94595055 9.01803543 4 13 C3.34 12.67 2.68 12.34 2 12 C1.34 12.66 0.68 13.32 0 14 C-0.33 11.36 -0.66 8.72 -1 6 C-0.34 6 0.32 6 1 6 C0.67 4.02 0.34 2.04 0 0 Z " fill="#818181" transform="translate(27,1)"/>
<path d="M0 0 C0.66 0 1.32 0 2 0 C2.33 1.98 2.66 3.96 3 6 C1.02 6 -0.96 6 -3 6 C-3 6.66 -3 7.32 -3 8 C-3.66 8 -4.32 8 -5 8 C-5.33 9.65 -5.66 11.3 -6 13 C-6.33 13 -6.66 13 -7 13 C-7.3125 9.6875 -7.3125 9.6875 -7 6 C-4.625 4.25 -4.625 4.25 -2 3 C-1.34 2.01 -0.68 1.02 0 0 Z " fill="#434343" transform="translate(36,42)"/>
<path d="M0 0 C0.66 0.66 1.32 1.32 2 2 C1.34 3.65 0.68 5.3 0 7 C-1.98 7 -3.96 7 -6 7 C-6 6.34 -6 5.68 -6 5 C-6.66 5 -7.32 5 -8 5 C-8 4.34 -8 3.68 -8 3 C-6.1875 1.9375 -6.1875 1.9375 -4 1 C-3.01 1.33 -2.02 1.66 -1 2 C-0.67 1.34 -0.34 0.68 0 0 Z " fill="#4F4F4F" transform="translate(49,56)"/>
<path d="M0 0 C4 0 4 0 5.8125 1.25 C7 3 7 3 6.875 5.125 C6.441875 6.053125 6.441875 6.053125 6 7 C5.01 7.33 4.02 7.66 3 8 C2.67 7.34 2.34 6.68 2 6 C1.01 5.34 0.02 4.68 -1 4 C-1.33 3.34 -1.66 2.68 -2 2 C-1.34 2 -0.68 2 0 2 C0 1.34 0 0.68 0 0 Z " fill="#464646" transform="translate(33,1)"/>
<path d="M0 0 C2.31 0 4.62 0 7 0 C7 2.31 7 4.62 7 7 C3.76509224 6.44225728 2.02144994 5.62788492 0 3 C0 2.01 0 1.02 0 0 Z " fill="#3E3E3E" transform="translate(33,71)"/>
<path d="M0 0 C0.66 0.66 1.32 1.32 2 2 C4.60280568 1.67958603 4.60280568 1.67958603 7 1 C7.33 1.66 7.66 2.32 8 3 C7.34 3 6.68 3 6 3 C4.36323743 4.9600281 4.36323743 4.9600281 3 7 C2.01 6.34 1.02 5.68 0 5 C0 5.66 0 6.32 0 7 C-0.66 7 -1.32 7 -2 7 C-2 5.35 -2 3.7 -2 2 C-1.34 2 -0.68 2 0 2 C0 1.34 0 0.68 0 0 Z " fill="#606060" transform="translate(30,39)"/>
<path d="M0 0 C5.94 0 11.88 0 18 0 C17.67 1.65 17.34 3.3 17 5 C16.01 5 15.02 5 14 5 C13.67 5.66 13.34 6.32 13 7 C13.33 5.02 13.66 3.04 14 1 C9.38 1 4.76 1 0 1 C0 0.67 0 0.34 0 0 Z " fill="#353535" transform="translate(7,69)"/>
<path d="M0 0 C0.33 0 0.66 0 1 0 C1 3.63 1 7.26 1 11 C-2 11 -2 11 -4 10 C-3.25 5.25 -3.25 5.25 -1 3 C-0.67 2.01 -0.34 1.02 0 0 Z " fill="#7F7F7F" transform="translate(45,34)"/>
<path d="M0 0 C2.97 0 5.94 0 9 0 C8.67 1.32 8.34 2.64 8 4 C5.69 4 3.38 4 1 4 C0.67 4.66 0.34 5.32 0 6 C0 4.02 0 2.04 0 0 Z " fill="#777777" transform="translate(32,8)"/>
<path d="M0 0 C5.93002267 -0.37851209 10.47239641 0.89424625 16 3 C15.67 3.66 15.34 4.32 15 5 C10.05 4.01 5.1 3.02 0 2 C0 1.34 0 0.68 0 0 Z " fill="#9A9A9A" transform="translate(21,57)"/>
<path d="M0 0 C0.4125 0.639375 0.825 1.27875 1.25 1.9375 C3.17810487 4.20990931 4.11424181 4.60196439 7 5 C6.67 5.66 6.34 6.32 6 7 C4.35 6.67 2.7 6.34 1 6 C1 6.66 1 7.32 1 8 C2.65 8 4.3 8 6 8 C6 8.33 6 8.66 6 9 C4.02 9 2.04 9 0 9 C-1.36623674 6.26752652 -1.128426 4.01801098 -1 1 C-0.67 0.67 -0.34 0.34 0 0 Z " fill="#838383" transform="translate(20,51)"/>
<path d="M0 0 C0.99 0 1.98 0 3 0 C4.11658501 4.68965706 3.80619523 7.53763531 2 12 C-0.25183973 7.9185405 0 4.58174564 0 0 Z " fill="#818181" transform="translate(31,26)"/>
<path d="M0 0 C1.65 0 3.3 0 5 0 C5.33 0.66 5.66 1.32 6 2 C5 5 5 5 2.9375 6.1875 C2.298125 6.455625 1.65875 6.72375 1 7 C0 6 0 6 -0.0625 2.9375 C-0.041875 1.968125 -0.02125 0.99875 0 0 Z " fill="#6C6C6C" transform="translate(34,25)"/>
<path d="M0 0 C0.66 0 1.32 0 2 0 C1.67 2.97 1.34 5.94 1 9 C-1.97 8.505 -1.97 8.505 -5 8 C-4.34 6.35 -3.68 4.7 -3 3 C-2.34 3 -1.68 3 -1 3 C-0.67 2.01 -0.34 1.02 0 0 Z " fill="#757575" transform="translate(25,18)"/>
<path d="M0 0 C0.33 0 0.66 0 1 0 C1 2.64 1 5.28 1 8 C0.34 8 -0.32 8 -1 8 C-1.33 9.32 -1.66 10.64 -2 12 C-2.33 12 -2.66 12 -3 12 C-2.14285714 3.42857143 -2.14285714 3.42857143 0 0 Z " fill="#383838" transform="translate(29,33)"/>
<path d="M0 0 C0.33 1.32 0.66 2.64 1 4 C1.99 4 2.98 4 4 4 C4 4.66 4 5.32 4 6 C3.34 6 2.68 6 2 6 C2 8.64 2 11.28 2 14 C0.4375 12.875 0.4375 12.875 -1 11 C-0.6875 8.125 -0.6875 8.125 0 5 C0.03622333 3.33372702 0.04899842 1.66594626 0 0 Z " fill="#2F2F2F" transform="translate(22,32)"/>
<path d="M0 0 C0 1.32 0 2.64 0 4 C-3.375 4.625 -3.375 4.625 -7 5 C-7.66 4.34 -8.32 3.68 -9 3 C-8.34 3 -7.68 3 -7 3 C-7 2.34 -7 1.68 -7 1 C-2.25 0 -2.25 0 0 0 Z " fill="#5C5C5C" transform="translate(42,15)"/>
<path d="M0 0 C2.99332739 0.9977758 3.94766315 1.7522025 6 4 C6 3.34 6 2.68 6 2 C6.66 2 7.32 2 8 2 C7.01 4.97 6.02 7.94 5 11 C4.67 11 4.34 11 4 11 C4.0825 10.29875 4.165 9.5975 4.25 8.875 C3.9191745 5.07050673 2.24686686 3.01922734 0 0 Z " fill="#363636" transform="translate(14,14)"/>
<path d="M0 0 C0 0.66 0 1.32 0 2 C-0.66 2 -1.32 2 -2 2 C-1.34 3.32 -0.68 4.64 0 6 C-0.66 6.66 -1.32 7.32 -2 8 C-2.99 7.34 -3.98 6.68 -5 6 C-4.67 5.01 -4.34 4.02 -4 3 C-4.66 2.67 -5.32 2.34 -6 2 C-3 0 -3 0 0 0 Z " fill="#313131" transform="translate(53,7)"/>
<path d="M0 0 C1.65 0.33 3.3 0.66 5 1 C5 2.32 5 3.64 5 5 C3.35 5 1.7 5 0 5 C-0.33 4.01 -0.66 3.02 -1 2 C-0.67 1.34 -0.34 0.68 0 0 Z " fill="#949494" transform="translate(33,51)"/>
<path d="M0 0 C0.33 0.66 0.66 1.32 1 2 C1.66 2 2.32 2 3 2 C3 1.34 3 0.68 3 0 C3.99 0.33 4.98 0.66 6 1 C5.67 1.99 5.34 2.98 5 4 C4.01 4 3.02 4 2 4 C1.67 4.99 1.34 5.98 1 7 C1 6.34 1 5.68 1 5 C0.34 4.67 -0.32 4.34 -1 4 C-0.67 2.68 -0.34 1.36 0 0 Z " fill="#8A8A8A" transform="translate(27,44)"/>
<path d="M0 0 C1.2065625 0.0309375 1.2065625 0.0309375 2.4375 0.0625 C2.4375 0.7225 2.4375 1.3825 2.4375 2.0625 C1.4475 2.0625 0.4575 2.0625 -0.5625 2.0625 C-0.30688677 4.4056213 0.03020772 6.74093403 0.4375 9.0625 C1.0975 9.3925 1.7575 9.7225 2.4375 10.0625 C1.4475 10.0625 0.4575 10.0625 -0.5625 10.0625 C-1.91689668 7.35370665 -1.62751451 5.05316732 -1.5625 2.0625 C-2.2225 1.7325 -2.8825 1.4025 -3.5625 1.0625 C-2.5625 0.0625 -2.5625 0.0625 0 0 Z " fill="#303030" transform="translate(39.5625,29.9375)"/>
<path d="M0 0 C3 3.625 3 3.625 3 7 C2.67 7.66 2.34 8.32 2 9 C0.68 9 -0.64 9 -2 9 C-1.34 6.03 -0.68 3.06 0 0 Z " fill="#858585" transform="translate(44,21)"/>
<path d="M0 0 C0.99 0 1.98 0 3 0 C3 0.66 3 1.32 3 2 C3.99 1.67 4.98 1.34 6 1 C5.34 2.32 4.68 3.64 4 5 C2.68 5 1.36 5 0 5 C-0.5625 3.0625 -0.5625 3.0625 -1 1 C-0.67 0.67 -0.34 0.34 0 0 Z " fill="#4C4C4C" transform="translate(47,16)"/>
<path d="M0 0 C0.598125 0.350625 1.19625 0.70125 1.8125 1.0625 C1.8125 2.3825 1.8125 3.7025 1.8125 5.0625 C1.1525 5.0625 0.4925 5.0625 -0.1875 5.0625 C-0.1875 4.4025 -0.1875 3.7425 -0.1875 3.0625 C-1.8375 2.7325 -3.4875 2.4025 -5.1875 2.0625 C-5.1875 1.4025 -5.1875 0.7425 -5.1875 0.0625 C-2.1875 -0.9375 -2.1875 -0.9375 0 0 Z " fill="#949494" transform="translate(46.1875,48.9375)"/>
<path d="M0 0 C2.31 0 4.62 0 7 0 C7.33 0.99 7.66 1.98 8 3 C6.02 3.33 4.04 3.66 2 4 C2.33 3.01 2.66 2.02 3 1 C2.01 1.33 1.02 1.66 0 2 C0 1.34 0 0.68 0 0 Z " fill="#111111" transform="translate(14,70)"/>
<path d="M0 0 C-2 2 -2 2 -5 2.25 C-8 2 -8 2 -10 0 C-6.7169902 -1.6415049 -3.57454967 -0.51888624 0 0 Z " fill="#606060" transform="translate(34,61)"/>
<path d="M0 0 C0.66 0.33 1.32 0.66 2 1 C2.4140625 3.06640625 2.4140625 3.06640625 2.625 5.5625 C2.69976563 6.38878906 2.77453125 7.21507812 2.8515625 8.06640625 C2.90054687 8.70449219 2.94953125 9.34257813 3 10 C1.35 9.67 -0.3 9.34 -2 9 C-1.34 8.67 -0.68 8.34 0 8 C0 5.36 0 2.72 0 0 Z " fill="#585858" transform="translate(24,38)"/>
<path d="M0 0 C0.33 0.66 0.66 1.32 1 2 C1.66 2 2.32 2 3 2 C2.67 2.66 2.34 3.32 2 4 C2.99 4.66 3.98 5.32 5 6 C3.02 6 1.04 6 -1 6 C-1.66 4.68 -2.32 3.36 -3 2 C-2.34 2 -1.68 2 -1 2 C-0.67 1.34 -0.34 0.68 0 0 Z " fill="#464646" transform="translate(10,72)"/>
<path d="M0 0 C2 1 4 2 6 3 C5.34 4.98 4.68 6.96 4 9 C3.67 9 3.34 9 3 9 C2.896875 8.05125 2.79375 7.1025 2.6875 6.125 C2.31460705 2.70892499 2.31460705 2.70892499 -1 1 C-0.67 0.67 -0.34 0.34 0 0 Z " fill="#6E6E6E" transform="translate(24,28)"/>
<path d="M0 0 C1.37562854 1.28965176 2.70766393 2.62689293 4 4 C4 4.66 4 5.32 4 6 C2.35 6.33 0.7 6.66 -1 7 C-1.33 5.68 -1.66 4.36 -2 3 C-1.34 3 -0.68 3 0 3 C0 2.01 0 1.02 0 0 Z " fill="#525252" transform="translate(28,13)"/>
<path d="M0 0 C1.98 0 3.96 0 6 0 C6 0.66 6 1.32 6 2 C5.34 2 4.68 2 4 2 C3.67 2.99 3.34 3.98 3 5 C2.34 5 1.68 5 1 5 C0.67 3.35 0.34 1.7 0 0 Z " fill="#717171" transform="translate(27,1)"/>
<path d="M0 0 C0.66 0 1.32 0 2 0 C4 3 4 3 3.75 5.125 C3 7 3 7 1 8 C0.67 5.36 0.34 2.72 0 0 Z " fill="#606060" transform="translate(39,49)"/>
<path d="M0 0 C1 3 1 3 1 5 C1.66 5 2.32 5 3 5 C3 5.66 3 6.32 3 7 C1.68 6.67 0.36 6.34 -1 6 C-1.625 4.125 -1.625 4.125 -2 2 C-1.34 1.34 -0.68 0.68 0 0 Z " fill="#3B3B3B" transform="translate(16,71)"/>
<path d="M0 0 C2.125 0.9375 2.125 0.9375 4 2 C4 3.65 4 5.3 4 7 C3.7525 6.38125 3.505 5.7625 3.25 5.125 C1.79371361 2.64931313 0.62187494 2.04874998 -2 1 C-1.34 0.67 -0.68 0.34 0 0 Z " fill="#B8B8B8" transform="translate(36,49)"/>
</svg>
