<?xml version="1.0" encoding="UTF-8"?>
<svg xmlns="http://www.w3.org/2000/svg" xmlns:xlink="http://www.w3.org/1999/xlink" width="543.3pt" height="436.8pt" viewBox="0 0 543.3 436.8" version="1.1">
<defs>
<clipPath id="clip1">
  <path d="M 108 390 L 443 390 L 443 436.800781 L 108 436.800781 Z M 108 390 "/>
</clipPath>
<clipPath id="clip2">
  <path d="M 0 0 L 543.300781 0 L 543.300781 385 L 0 385 Z M 0 0 "/>
</clipPath>
</defs>
<g id="surface1">
<path style=" stroke:none;fill-rule:evenodd;fill:rgb(89.0625%,0%,8.616638%);fill-opacity:1;" d="M 271.816406 63.421875 C 386.609375 63.421875 479.699219 153.503906 479.699219 264.589844 C 479.699219 310.847656 463.546875 353.453125 436.417969 387.4375 L 107.214844 387.4375 C 80.085938 353.453125 63.933594 310.847656 63.933594 264.589844 C 63.933594 153.503906 157.023438 63.421875 271.816406 63.421875 Z M 271.816406 63.421875 "/>
<path style=" stroke:none;fill-rule:evenodd;fill:rgb(100%,100%,100%);fill-opacity:1;" d="M 197.074219 151.515625 C 208.148438 151.515625 217.125 162.726563 217.125 176.550781 C 217.125 190.375 208.148438 201.585938 197.074219 201.585938 C 186.007813 201.585938 177.03125 190.375 177.03125 176.550781 C 177.03125 162.726563 186.007813 151.515625 197.074219 151.515625 Z M 138.210938 257.351563 L 138.210938 257.355469 C 141.734375 260.574219 147.046875 260.003906 150.011719 256.097656 L 176.640625 221.109375 L 176.640625 208.335938 C 176.4375 208.113281 176.226563 207.890625 176.003906 207.6875 L 176.003906 207.683594 C 172.480469 204.472656 167.167969 205.035156 164.199219 208.941406 L 137.214844 244.402344 C 134.246094 248.3125 134.695313 254.132813 138.210938 257.351563 Z M 254.511719 256.121094 C 250.988281 259.332031 245.675781 258.769531 242.703125 254.863281 L 215.726563 219.402344 C 214.949219 218.382813 214.410156 217.234375 214.089844 216.035156 L 214.089844 210.867188 C 214.535156 209.195313 215.414063 207.640625 216.71875 206.449219 C 220.238281 203.234375 225.550781 203.800781 228.523438 207.707031 L 255.507813 243.164063 C 258.476563 247.074219 258.027344 252.902344 254.511719 256.121094 Z M 172.183594 233.46875 L 180.441406 222.890625 L 180.441406 209.460938 L 210.292969 209.460938 L 210.292969 220.21875 L 219.6875 233.46875 L 219.6875 278.753906 C 219.6875 283.0625 216.480469 286.578125 212.558594 286.578125 L 179.308594 286.578125 C 175.390625 286.578125 172.183594 283.0625 172.183594 278.753906 Z M 181.140625 294.160156 C 185.367188 294.160156 188.828125 297.960938 188.828125 302.605469 L 188.828125 358.601563 C 188.828125 363.25 185.367188 367.046875 181.140625 367.046875 C 176.914063 367.046875 173.457031 363.25 173.457031 358.601563 L 173.457031 302.605469 C 173.457031 297.960938 176.914063 294.160156 181.140625 294.160156 Z M 211.117188 294.160156 C 215.34375 294.160156 218.804688 297.960938 218.804688 302.605469 L 218.804688 358.601563 C 218.804688 363.25 215.34375 367.046875 211.117188 367.046875 C 206.890625 367.046875 203.433594 363.25 203.433594 358.601563 L 203.433594 302.605469 C 203.433594 297.960938 206.890625 294.160156 211.117188 294.160156 Z M 359.269531 166.296875 C 369.539063 166.296875 377.867188 176.695313 377.867188 189.519531 C 377.867188 202.34375 369.539063 212.746094 359.269531 212.746094 C 348.996094 212.746094 340.667969 202.34375 340.667969 189.519531 C 340.667969 176.695313 348.996094 166.296875 359.269531 166.296875 Z M 315.492188 265.925781 C 318.675781 268.449219 323.195313 267.617188 325.527344 264.089844 L 349.328125 228.078125 C 351.664063 224.542969 350.960938 219.589844 347.777344 217.074219 C 344.585938 214.550781 340.070313 215.375 337.734375 218.90625 L 313.933594 254.921875 C 311.601563 258.457031 312.300781 263.402344 315.492188 265.925781 Z M 405.808594 264.957031 C 402.652344 267.539063 397.992188 266.90625 395.453125 263.546875 L 369.542969 229.285156 C 367 225.925781 367.503906 221.070313 370.664063 218.488281 L 370.664063 218.480469 C 373.816406 215.90625 378.472656 216.539063 381.015625 219.898438 L 406.929688 254.160156 C 409.464844 257.515625 408.964844 262.375 405.808594 264.957031 Z M 365.304688 226.796875 L 366.714844 231.277344 L 392.875 314.324219 C 394.25 318.664063 389.453125 322.675781 385.277344 322.675781 L 333.796875 322.675781 C 329.617188 322.675781 324.828125 318.664063 326.195313 314.324219 L 351.757813 233.183594 L 353.773438 226.796875 C 357.671875 214.410156 361.070313 213.367188 365.304688 226.796875 Z M 344.617188 328.652344 C 348.707031 328.652344 352.050781 332.324219 352.050781 336.8125 L 352.050781 360.691406 C 352.050781 365.179688 348.707031 368.851563 344.617188 368.851563 C 340.53125 368.851563 337.183594 365.179688 337.183594 360.691406 L 337.183594 336.8125 C 337.183594 332.324219 340.53125 328.652344 344.617188 328.652344 Z M 373.792969 328.652344 C 377.878906 328.652344 381.222656 332.324219 381.222656 336.8125 L 381.222656 360.691406 C 381.222656 365.179688 377.878906 368.851563 373.792969 368.851563 C 369.699219 368.851563 366.359375 365.179688 366.359375 360.691406 L 366.359375 336.8125 C 366.359375 332.324219 369.699219 328.652344 373.792969 328.652344 Z M 284.800781 286.546875 L 285.613281 289.132813 L 304.097656 336.957031 C 305.058594 339.453125 302.472656 341.761719 300.246094 341.761719 L 263.5 341.761719 C 260.839844 341.761719 257.378906 339.363281 258.335938 336.957031 L 277.003906 290.222656 L 278.164063 286.546875 C 280.410156 279.417969 282.367188 278.816406 284.800781 286.546875 Z M 282.730469 253.667969 C 288.1875 253.667969 292.605469 259.339844 292.605469 266.339844 C 292.605469 273.347656 288.1875 279.023438 282.730469 279.023438 C 277.277344 279.023438 272.855469 273.347656 272.855469 266.339844 C 272.855469 259.339844 277.277344 253.667969 282.730469 253.667969 Z M 274.578125 344.730469 C 276.953125 344.730469 278.894531 346.863281 278.894531 349.46875 L 278.894531 363.328125 C 278.894531 365.929688 276.953125 368.066406 274.578125 368.066406 C 272.203125 368.066406 270.265625 365.929688 270.265625 363.328125 L 270.265625 349.46875 C 270.265625 346.863281 272.203125 344.730469 274.578125 344.730469 Z M 289.730469 344.730469 C 292.105469 344.730469 294.046875 346.863281 294.046875 349.46875 L 294.046875 363.328125 C 294.046875 365.929688 292.105469 368.066406 289.730469 368.066406 C 287.355469 368.066406 285.421875 365.929688 285.421875 363.328125 L 285.421875 349.46875 C 285.421875 346.863281 287.355469 344.730469 289.730469 344.730469 Z M 318.117188 269.261719 C 316.964844 281.988281 306.433594 292.503906 292.347656 295.882813 L 287.855469 284.738281 C 298.09375 283.109375 306.089844 276.816406 307.898438 268.898438 Z M 270.871094 295.363281 C 256.945313 291.269531 246.953125 280.082031 246.953125 266.933594 C 246.953125 265.359375 247.09375 263.816406 247.367188 262.308594 L 257.101563 262.957031 C 256.964844 263.792969 256.890625 264.636719 256.890625 265.5 C 256.890625 274.203125 264.300781 281.597656 274.558594 284.175781 Z M 270.871094 295.363281 "/>
<path style=" stroke:none;fill-rule:evenodd;fill:rgb(100%,92.576599%,0%);fill-opacity:1;" d="M 275.074219 137.367188 C 277.265625 137.554688 279.363281 138.070313 281.316406 138.863281 L 286.019531 130.953125 L 282.816406 139.535156 C 284.332031 140.289063 285.742188 141.21875 287.023438 142.289063 L 300.195313 131.609375 L 289.152344 144.355469 C 290.492188 145.851563 291.617188 147.53125 292.460938 149.351563 L 301.476563 146.691406 L 293.082031 150.835938 C 293.691406 152.445313 294.082031 154.152344 294.246094 155.917969 L 316.089844 157.777344 L 294.246094 159.636719 C 294.082031 161.441406 293.667969 163.160156 293.054688 164.785156 L 301.4375 168.964844 L 292.429688 166.269531 C 291.589844 168.066406 290.476563 169.730469 289.152344 171.203125 L 300.195313 183.953125 L 287.023438 173.269531 C 285.335938 174.683594 283.414063 175.847656 281.324219 176.6875 L 283.828125 185.488281 L 279.769531 177.25 C 278.277344 177.730469 276.707031 178.046875 275.074219 178.191406 L 273.152344 199.332031 L 271.230469 178.191406 C 269.035156 178 266.9375 177.484375 264.988281 176.691406 L 260.285156 184.601563 L 263.492188 176.019531 C 261.972656 175.261719 260.566406 174.339844 259.28125 173.269531 L 246.113281 183.953125 L 257.15625 171.203125 C 255.816406 169.710938 254.695313 168.023438 253.84375 166.203125 L 244.828125 168.863281 L 253.21875 164.71875 C 252.621094 163.109375 252.226563 161.40625 252.058594 159.636719 L 230.21875 157.777344 L 252.058594 155.917969 C 252.226563 154.121094 252.636719 152.398438 253.246094 150.765625 L 244.867188 146.597656 L 253.871094 149.289063 C 254.71875 147.492188 255.832031 145.824219 257.15625 144.355469 L 246.113281 131.609375 L 259.28125 142.289063 C 260.96875 140.871094 262.886719 139.707031 264.984375 138.863281 L 262.476563 130.066406 L 266.53125 138.304688 C 268.03125 137.824219 269.601563 137.507813 271.230469 137.367188 L 273.152344 116.214844 Z M 275.074219 137.367188 "/>
<g clip-path="url(#clip1)" clip-rule="nonzero">
<path style=" stroke:none;fill-rule:evenodd;fill:rgb(10.594177%,9.812927%,9.423828%);fill-opacity:1;" d="M 119.378906 412.820313 L 119.378906 405.273438 L 111.332031 405.273438 L 108.964844 401.402344 L 127.628906 401.402344 L 129.84375 405.273438 L 124.105469 405.273438 L 124.105469 412.695313 C 124.105469 414.109375 123.804688 415.308594 123.203125 416.28125 C 122.734375 417.019531 121.859375 417.78125 120.585938 418.554688 L 127.527344 425.746094 L 125.699219 427.40625 L 121.089844 422.628906 C 119.078125 420.507813 117.5 418.707031 116.359375 417.222656 C 114.886719 415.335938 114.148438 414.019531 114.148438 413.28125 C 114.148438 412.199219 114.71875 411.664063 115.859375 411.664063 C 116.394531 411.664063 117.132813 411.847656 118.070313 412.214844 Z M 136.683594 405.273438 L 136.683594 427.097656 L 131.953125 423.769531 L 131.953125 405.273438 L 128.632813 405.273438 L 126.121094 401.402344 L 140.40625 401.402344 L 142.617188 405.273438 Z M 154.84375 418.863281 C 154.539063 419.300781 153.917969 419.769531 152.980469 420.265625 C 152.007813 420.699219 151.019531 420.917969 150.011719 420.917969 C 148.503906 420.917969 146.84375 420.113281 145.035156 418.511719 C 143.054688 416.742188 142.066406 414.949219 142.066406 413.148438 L 142.066406 405.273438 L 139.25 405.273438 L 136.734375 401.402344 L 155.847656 401.402344 L 158.0625 405.324219 L 146.59375 405.273438 L 154.84375 412.164063 L 155.949219 413.414063 L 155.949219 417.765625 Z M 154.265625 414.496094 L 146.792969 408.257813 L 146.792969 414.085938 C 146.792969 414.957031 146.902344 415.730469 147.121094 416.417969 C 147.339844 417.105469 147.734375 417.449219 148.3125 417.449219 C 149.050781 417.449219 149.863281 417.222656 150.757813 416.777344 C 151.648438 416.324219 152.8125 415.570313 154.265625 414.496094 Z M 165.253906 405.273438 L 152.328125 405.273438 L 149.8125 401.402344 L 173.253906 401.402344 L 175.464844 405.273438 L 169.984375 405.273438 L 169.984375 410.875 C 169.984375 411.511719 169.917969 411.957031 169.78125 412.214844 C 169.648438 412.46875 169.414063 412.644531 169.078125 412.746094 C 165.121094 413.347656 162.355469 414.167969 160.777344 415.21875 C 159.4375 416.054688 158.765625 417.164063 158.765625 418.546875 C 158.765625 419.214844 159.152344 419.835938 159.921875 420.414063 C 160.695313 420.984375 161.480469 421.269531 162.285156 421.269531 C 164.03125 421.269531 166.195313 420.683594 168.777344 419.511719 C 169.816406 419.074219 170.972656 418.488281 172.246094 417.75 L 174.359375 421.472656 C 174.257813 422.042969 173.246094 422.769531 171.316406 423.660156 C 169.386719 424.546875 167.601563 424.992188 165.957031 424.992188 C 163.140625 424.992188 160.601563 424.039063 158.339844 422.117188 C 156.074219 420.207031 154.941406 418.101563 154.941406 415.8125 C 154.941406 414.875 155.175781 414.003906 155.648438 413.1875 C 156.285156 412.082031 157.273438 411.261719 158.613281 410.722656 C 159.386719 410.421875 160.550781 410.0625 162.109375 409.660156 C 163.671875 409.257813 164.71875 408.886719 165.253906 408.550781 Z M 160.878906 432.335938 L 167.621094 427.308594 C 168.019531 427.003906 168.355469 426.855469 168.625 426.855469 C 168.691406 426.886719 168.765625 426.921875 168.851563 426.953125 C 168.933594 426.988281 169.042969 427.054688 169.179688 427.15625 L 169.832031 428.0625 L 175.015625 435.40625 L 173.175781 436.730469 L 169.277344 431.214844 L 163.484375 435.539063 Z M 189.25 405.273438 L 183.011719 405.273438 L 183.011719 427.347656 L 178.285156 424.171875 L 178.285156 405.273438 L 175.015625 405.273438 L 172.5 401.402344 L 179.539063 401.402344 C 179.539063 399.214844 178.996094 397.417969 177.90625 396.019531 C 176.816406 394.609375 175.535156 393.90625 174.058594 393.90625 C 172.984375 393.90625 172.113281 394.214844 171.441406 394.828125 C 170.773438 395.441406 170.4375 396.246094 170.4375 397.242188 L 170.535156 398.835938 L 167.820313 399.136719 C 167.316406 398.632813 166.90625 398.007813 166.589844 397.25 C 166.269531 396.496094 166.109375 395.835938 166.109375 395.265625 C 166.109375 393.855469 166.730469 392.632813 167.972656 391.59375 C 169.210938 390.554688 170.703125 390.03125 172.449219 390.03125 C 174.828125 390.03125 176.839844 390.972656 178.484375 392.859375 C 180.128906 394.746094 181.183594 397.59375 181.652344 401.402344 L 186.734375 401.402344 Z M 183.011719 401.402344 L 210.828125 401.402344 L 213.042969 405.273438 L 208.917969 405.273438 L 208.917969 427.398438 L 204.1875 424.078125 L 204.1875 419.511719 L 202.078125 420.515625 C 200.398438 421.21875 199.058594 421.574219 198.050781 421.574219 C 196.242188 421.574219 194.582031 420.933594 193.074219 419.652344 C 192.199219 418.914063 191.160156 417.722656 189.953125 416.074219 L 188.949219 414.003906 C 188.511719 412.929688 188.210938 412.03125 188.042969 411.328125 C 188.042969 411.125 189.15625 410.664063 191.386719 409.945313 C 193.617188 409.214844 194.730469 408.484375 194.730469 407.746094 C 194.730469 407.246094 194.480469 406.582031 193.976563 405.777344 L 193.625 405.273438 L 185.476563 405.273438 Z M 198.957031 411.488281 C 198.957031 411.957031 197.917969 412.558594 195.839844 413.28125 C 193.761719 414.003906 192.71875 414.757813 192.71875 415.527344 C 192.71875 416.199219 193.191406 416.742188 194.128906 417.144531 C 194.832031 417.378906 195.488281 417.5 196.089844 417.5 C 197.363281 417.5 199.109375 416.945313 201.320313 415.828125 L 204.1875 414.160156 L 204.1875 405.273438 L 196.492188 405.273438 L 197.699219 407.394531 C 198.539063 409.148438 198.957031 410.515625 198.957031 411.488281 Z M 243.074219 417.488281 C 242.972656 417.523438 242.679688 417.625 242.191406 417.792969 C 241.707031 417.960938 241.078125 418.144531 240.304688 418.351563 L 237.640625 418.707031 C 236.867188 418.707031 235.996094 418.386719 235.023438 417.75 L 232.960938 416.191406 C 232.457031 417.0625 231.570313 417.984375 230.296875 418.957031 L 229.339844 419.5625 L 236.28125 427.140625 L 234.167969 428.957031 C 232.761719 427.367188 231.417969 425.816406 230.144531 424.28125 C 228.871094 422.746094 227.738281 421.3125 226.75 419.980469 C 225.761719 418.648438 224.988281 417.449219 224.4375 416.390625 C 223.882813 415.328125 223.605469 414.496094 223.605469 413.882813 C 223.605469 413.382813 223.757813 412.9375 224.058594 412.542969 C 224.359375 412.15625 224.761719 411.929688 225.265625 411.863281 C 225.769531 411.863281 226.457031 412.148438 227.328125 412.71875 L 228.535156 413.625 L 228.535156 405.273438 L 221.292969 405.273438 L 218.777344 401.402344 L 242.921875 401.402344 L 245.136719 405.273438 L 233.265625 405.273438 L 233.265625 413.675781 L 234.371094 414.078125 C 234.738281 414.179688 235.175781 414.226563 235.679688 414.226563 C 236.851563 414.226563 238.09375 414.042969 239.402344 413.675781 C 240.039063 413.472656 240.660156 413.273438 241.261719 413.070313 C 241.867188 412.871094 242.46875 412.636719 243.074219 412.367188 Z M 263.746094 405.273438 L 263.746094 427.398438 L 259.019531 424.078125 L 259.019531 420.011719 C 258.148438 420.785156 257.125 421.457031 255.949219 422.023438 C 254.542969 422.730469 253.234375 423.082031 252.027344 423.082031 C 250.113281 423.082031 248.09375 422.191406 245.964844 420.414063 C 243.835938 418.636719 242.769531 416.675781 242.769531 414.53125 C 242.769531 412.820313 243.566406 411.320313 245.160156 410.027344 C 246.753906 408.738281 248.574219 408.089844 250.617188 408.089844 C 251.757813 408.089844 252.765625 408.226563 253.636719 408.492188 C 254.507813 408.761719 255.464844 409.296875 256.503906 410.105469 C 257.441406 410.773438 258.28125 411.628906 259.019531 412.667969 L 259.019531 405.273438 L 240.257813 405.273438 L 237.742188 401.402344 L 267.269531 401.402344 L 269.480469 405.273438 Z M 259.019531 415.386719 L 259.019531 414.730469 L 257.710938 413.925781 L 256.050781 413.121094 L 253.9375 412.417969 C 253.535156 412.316406 252.898438 412.265625 252.027344 412.265625 C 250.652344 412.265625 249.460938 412.769531 248.457031 413.777344 C 247.515625 414.78125 247.046875 415.9375 247.046875 417.246094 C 247.046875 417.917969 247.347656 418.488281 247.953125 418.957031 C 248.554688 419.359375 249.292969 419.5625 250.164063 419.5625 C 250.9375 419.5625 252.414063 419.007813 254.59375 417.898438 C 255.164063 417.597656 255.867188 417.214844 256.703125 416.742188 C 257.542969 416.273438 258.316406 415.820313 259.019531 415.386719 Z M 275.316406 405.273438 L 275.316406 427.097656 L 270.589844 423.769531 L 270.589844 405.273438 L 267.269531 405.273438 L 264.753906 401.402344 L 279.039063 401.402344 L 281.253906 405.273438 Z M 299.511719 417.488281 C 299.410156 417.523438 299.117188 417.625 298.632813 417.792969 C 298.144531 417.960938 297.515625 418.144531 296.746094 418.351563 L 294.078125 418.707031 C 293.308594 418.707031 292.4375 418.386719 291.464844 417.75 L 289.402344 416.191406 C 288.898438 417.0625 288.007813 417.984375 286.734375 418.957031 L 285.78125 419.5625 L 292.722656 427.140625 L 290.609375 428.957031 C 289.199219 427.367188 287.859375 425.816406 286.585938 424.28125 C 285.308594 422.746094 284.179688 421.3125 283.1875 419.980469 C 282.199219 418.648438 281.429688 417.449219 280.875 416.390625 C 280.320313 415.328125 280.046875 414.496094 280.046875 413.882813 C 280.046875 413.382813 280.195313 412.9375 280.496094 412.542969 C 280.800781 412.15625 281.203125 411.929688 281.707031 411.863281 C 282.207031 411.863281 282.894531 412.148438 283.769531 412.71875 L 284.976563 413.625 L 284.976563 405.273438 L 277.730469 405.273438 L 275.214844 401.402344 L 299.363281 401.402344 L 301.574219 405.273438 L 289.703125 405.273438 L 289.703125 413.675781 L 290.808594 414.078125 C 291.179688 414.179688 291.613281 414.226563 292.117188 414.226563 C 293.292969 414.226563 294.53125 414.042969 295.839844 413.675781 C 296.476563 413.472656 297.097656 413.273438 297.703125 413.070313 C 298.304688 412.871094 298.910156 412.636719 299.511719 412.367188 Z M 314.453125 405.273438 L 311.9375 401.402344 L 317.519531 401.402344 L 319.734375 405.273438 Z M 318.023438 420.648438 C 317.320313 421.289063 316.179688 422.007813 314.601563 422.796875 C 313.027344 423.59375 311.851563 423.988281 311.082031 423.988281 C 309.171875 423.988281 306.890625 423.054688 304.242188 421.195313 C 301.992188 419.5625 300.265625 417.917969 299.058594 416.257813 L 303.035156 414.378906 C 304.007813 413.976563 304.691406 413.617188 305.097656 413.28125 L 301.625 410.933594 C 300.046875 409.734375 299.261719 408.21875 299.261719 406.390625 C 299.261719 404.664063 299.871094 403.3125 301.097656 402.347656 C 302.320313 401.382813 304.023438 400.898438 306.203125 400.898438 C 307.777344 400.898438 309.488281 401.871094 311.332031 403.816406 C 312.238281 404.789063 312.925781 405.753906 313.394531 406.707031 C 313.867188 407.664063 314.101563 408.644531 314.101563 409.652344 C 314.101563 411.460938 313.09375 413.222656 311.082031 414.933594 C 310.074219 415.738281 308.382813 416.8125 306 418.152344 C 306 418.519531 306.035156 418.847656 306.101563 419.132813 C 306.167969 419.417969 306.3125 419.652344 306.53125 419.835938 C 306.746094 420.023438 306.992188 420.164063 307.257813 420.265625 C 307.527344 420.367188 307.863281 420.414063 308.265625 420.414063 C 309.40625 420.414063 310.914063 419.804688 312.792969 418.589844 L 318.023438 414.378906 Z M 306.90625 411.863281 C 307.777344 411.394531 308.484375 410.722656 309.019531 409.851563 C 309.554688 408.878906 309.824219 407.90625 309.824219 406.933594 C 309.824219 406.265625 309.605469 405.710938 309.171875 405.273438 C 308.734375 404.839844 308.164063 404.621094 307.460938 404.621094 C 306.519531 404.621094 305.707031 404.9375 305.019531 405.578125 C 304.332031 406.214844 303.988281 407.035156 303.988281 408.042969 C 303.988281 409.015625 304.492188 409.9375 305.5 410.808594 Z M 313.09375 401.402344 L 340.910156 401.402344 L 343.125 405.273438 L 339 405.273438 L 339 427.398438 L 334.269531 424.078125 L 334.269531 419.511719 L 332.160156 420.515625 C 330.480469 421.21875 329.140625 421.574219 328.132813 421.574219 C 326.324219 421.574219 324.664063 420.933594 323.15625 419.652344 C 322.28125 418.914063 321.242188 417.722656 320.035156 416.074219 L 319.03125 414.003906 C 318.59375 412.929688 318.292969 412.03125 318.125 411.328125 C 318.125 411.125 319.238281 410.664063 321.46875 409.945313 C 323.699219 409.214844 324.816406 408.484375 324.816406 407.746094 C 324.816406 407.246094 324.5625 406.582031 324.058594 405.777344 L 323.707031 405.273438 L 315.558594 405.273438 Z M 329.039063 411.488281 C 329.039063 411.957031 328 412.558594 325.921875 413.28125 C 323.84375 414.003906 322.800781 414.757813 322.800781 415.527344 C 322.800781 416.199219 323.273438 416.742188 324.210938 417.144531 C 324.914063 417.378906 325.570313 417.5 326.171875 417.5 C 327.445313 417.5 329.191406 416.945313 331.402344 415.828125 L 334.269531 414.160156 L 334.269531 405.273438 L 326.574219 405.273438 L 327.78125 407.394531 C 328.621094 409.148438 329.039063 410.515625 329.039063 411.488281 Z M 352.53125 405.273438 L 350.015625 401.402344 L 356.605469 401.402344 C 356.503906 401.199219 356.304688 400.796875 356 400.203125 C 355.832031 399.867188 355.648438 399.449219 355.449219 398.945313 C 355.3125 398.484375 355.214844 398.054688 355.148438 397.671875 C 355.078125 397.285156 355.046875 396.824219 355.046875 396.296875 C 355.046875 394.492188 355.691406 393.066406 356.984375 392.011719 C 358.273438 390.964844 359.976563 390.433594 362.089844 390.433594 C 364.101563 390.433594 366.632813 391.359375 369.683594 393.203125 C 372.332031 394.777344 374.496094 396.453125 376.171875 398.230469 L 375.21875 399.890625 C 373.472656 398.347656 371.605469 397.058594 369.609375 396.019531 C 367.613281 394.980469 365.761719 394.460938 364.050781 394.460938 C 362.40625 394.460938 361.148438 394.945313 360.277344 395.910156 C 359.40625 396.875 358.96875 398.191406 358.96875 399.851563 C 358.96875 400.722656 358.96875 401.234375 358.96875 401.402344 L 363.613281 401.402344 L 366.164063 405.273438 L 360.480469 405.273438 L 360.480469 427.347656 L 355.75 424.171875 L 355.75 405.273438 Z M 359.875 401.402344 L 386.835938 401.402344 L 389.050781 405.273438 L 384.824219 405.273438 L 384.824219 427.398438 L 380.097656 424.078125 L 380.097656 418.050781 L 372.046875 418.050781 L 372.046875 420.214844 C 372.046875 420.816406 371.988281 421.230469 371.871094 421.445313 C 371.753906 421.664063 371.460938 421.773438 370.992188 421.773438 C 370.625 421.773438 370.035156 421.488281 369.230469 420.925781 C 368.394531 420.257813 367.621094 419.570313 366.917969 418.847656 C 366.214844 418.136719 365.726563 417.574219 365.457031 417.179688 C 365.054688 416.574219 364.855469 415.996094 364.855469 415.425781 C 364.855469 414.597656 365.375 414.179688 366.414063 414.179688 L 367.320313 414.179688 L 367.320313 405.273438 L 362.441406 405.273438 Z M 372.046875 414.179688 L 380.097656 414.179688 L 380.097656 405.273438 L 372.046875 405.273438 Z M 399.765625 430.566406 L 395.238281 423.785156 L 394.332031 423.785156 C 393.023438 423.785156 391.910156 423.367188 390.988281 422.519531 C 390.066406 421.671875 389.605469 420.648438 389.605469 419.460938 C 389.605469 418.753906 389.832031 418.085938 390.28125 417.449219 C 390.734375 416.8125 391.265625 416.492188 391.867188 416.492188 C 392.4375 416.492188 393.089844 416.976563 393.828125 417.949219 L 394.785156 419.460938 L 397.402344 417.941406 C 398.507813 417.238281 399.210938 416.585938 399.515625 415.972656 L 393.328125 412.894531 C 391.582031 411.554688 390.710938 410.085938 390.710938 408.503906 C 390.710938 407.765625 390.980469 407.011719 391.515625 406.230469 L 392.320313 405.273438 L 387.390625 405.273438 L 384.875 401.402344 L 408.015625 401.402344 L 410.226563 405.273438 L 403.1875 405.273438 C 403.890625 405.878906 404.441406 406.429688 404.84375 406.933594 C 405.953125 408.351563 406.503906 409.777344 406.503906 411.226563 C 406.503906 413.910156 405.296875 416.5 402.882813 418.988281 C 401.820313 420.0625 400.023438 421.414063 397.511719 423.023438 L 402.121094 429.292969 Z M 401.777344 410.003906 C 401.777344 408.527344 401.476563 407.285156 400.871094 406.28125 L 399.964844 405.273438 L 398.257813 405.273438 C 397.6875 405.476563 397.148438 405.878906 396.644531 406.480469 C 396.242188 407.050781 396.042969 407.738281 396.042969 408.542969 C 396.042969 409.71875 396.644531 410.910156 397.855469 412.117188 C 398.691406 412.953125 399.632813 413.609375 400.671875 414.078125 L 401.476563 412.117188 C 401.675781 411.511719 401.777344 410.808594 401.777344 410.003906 Z M 414.050781 405.273438 L 414.050781 427.097656 L 409.324219 423.769531 L 409.324219 405.273438 L 406.003906 405.273438 L 403.488281 401.402344 L 417.773438 401.402344 L 419.988281 405.273438 Z M 433.214844 416.089844 L 427.179688 416.089844 C 426.8125 416.089844 426.625 416.527344 426.625 417.398438 L 426.625 418.050781 C 426.625 418.6875 426.542969 419.175781 426.375 419.511719 C 426.207031 419.84375 425.789063 420.011719 425.117188 420.011719 C 424.378906 420.011719 423.28125 419.148438 421.824219 417.421875 C 420.363281 415.695313 419.636719 414.429688 419.636719 413.625 C 419.636719 413.1875 419.820313 412.84375 420.1875 412.59375 C 420.558594 412.34375 420.992188 412.183594 421.496094 412.117188 L 433.214844 412.117188 L 433.214844 405.273438 L 416.363281 405.273438 L 413.851563 401.402344 L 440.007813 401.402344 L 442.21875 405.273438 L 437.945313 405.273438 L 437.945313 427.097656 L 433.214844 423.777344 Z M 433.214844 416.089844 "/>
</g>
<g clip-path="url(#clip2)" clip-rule="nonzero">
<path style=" stroke:none;fill-rule:evenodd;fill:rgb(10.594177%,9.812927%,9.423828%);fill-opacity:1;" d="M 71.347656 365.671875 L 28.410156 383.621094 L 25.96875 377.785156 L 50.253906 341.167969 L 16.550781 355.257813 L 14.269531 349.796875 L 57.210938 331.847656 L 59.648438 337.6875 L 35.363281 374.304688 L 69.066406 360.214844 Z M 55.269531 326.867188 L 6.0625 318.890625 L 4.679688 312.261719 L 46.375 284.210938 L 47.804688 291.074219 L 35.09375 299.222656 L 39.097656 318.40625 L 53.933594 320.46875 Z M 33.828125 317.660156 L 30.589844 302.132813 L 18.949219 309.519531 C 15.410156 311.75 12.464844 313.492188 10.117188 314.769531 C 13.21875 314.773438 16.308594 315.003906 19.414063 315.453125 Z M 47.039063 272.101563 L 5.96875 273.0625 L 6.328125 288.398438 L 0.867188 288.527344 L 0.0078125 251.679688 L 5.464844 251.554688 L 5.824219 266.890625 L 46.894531 265.929688 Z M 47.949219 243.222656 L 1.777344 237.355469 L 2.558594 231.230469 L 48.726563 237.097656 Z M 27.046875 221.65625 C 19.636719 219.519531 14.402344 215.847656 11.359375 210.652344 C 8.3125 205.453125 7.703125 199.710938 9.523438 193.402344 C 10.714844 189.269531 12.773438 185.835938 15.699219 183.085938 C 18.621094 180.34375 22.097656 178.605469 26.128906 177.882813 C 30.148438 177.160156 34.398438 177.4375 38.863281 178.726563 C 43.390625 180.03125 47.1875 182.117188 50.226563 184.980469 C 53.28125 187.84375 55.238281 191.214844 56.105469 195.097656 C 56.976563 198.988281 56.851563 202.875 55.730469 206.757813 C 54.515625 210.976563 52.410156 214.4375 49.425781 217.171875 C 46.441406 219.898438 42.945313 221.617188 38.933594 222.3125 C 34.933594 223.007813 30.972656 222.789063 27.046875 221.65625 Z M 28.917969 215.566406 C 34.296875 217.117188 38.953125 216.894531 42.878906 214.890625 C 46.804688 212.890625 49.402344 209.703125 50.664063 205.332031 C 51.945313 200.875 51.4375 196.773438 49.148438 192.988281 C 46.851563 189.214844 42.832031 186.5 37.085938 184.84375 C 33.453125 183.796875 30.101563 183.496094 27.042969 183.941406 C 23.980469 184.390625 21.359375 185.585938 19.191406 187.519531 C 17.015625 189.460938 15.5 191.902344 14.652344 194.847656 C 13.445313 199.03125 13.84375 203.046875 15.847656 206.894531 C 17.847656 210.742188 22.203125 213.632813 28.917969 215.566406 Z M 64.859375 178.074219 L 23.628906 156.488281 L 26.5625 150.886719 L 70.25 146.195313 L 37.886719 129.25 L 40.628906 124.011719 L 81.863281 145.597656 L 78.929688 151.203125 L 35.238281 155.890625 L 67.601563 172.835938 Z M 84.59375 140.816406 L 62.019531 96.371094 L 66.558594 91.347656 L 113.796875 108.476563 L 109.097656 113.679688 L 95.023438 108.222656 L 81.886719 122.765625 L 88.972656 135.964844 Z M 79.386719 118.070313 L 90.015625 106.296875 L 77.1875 101.253906 C 73.296875 99.710938 70.152344 98.359375 67.738281 97.214844 C 69.5625 99.722656 71.199219 102.355469 72.667969 105.125 Z M 117.527344 105.636719 L 87.550781 70.035156 L 92.277344 66.058594 L 118.734375 97.480469 L 136.238281 82.746094 L 139.753906 86.921875 Z M 175.957031 66.777344 L 159.164063 23.375 L 164.921875 21.144531 L 171.84375 39.027344 L 194.273438 30.351563 L 187.351563 12.46875 L 193.113281 10.238281 L 209.90625 53.644531 L 204.144531 55.871094 L 196.242188 35.441406 L 173.8125 44.121094 L 181.714844 64.550781 Z M 220.316406 51.9375 L 212.191406 6.113281 L 245.277344 0.242188 L 246.230469 5.621094 L 219.222656 10.410156 L 221.71875 24.488281 L 247 20.007813 L 247.953125 25.382813 L 222.675781 29.867188 L 225.445313 45.480469 L 253.539063 40.5 L 254.496094 45.875 Z M 258.058594 45.957031 L 277.226563 -0.0585938 L 283.996094 0.132813 L 301.613281 47.191406 L 294.605469 46.996094 L 289.625 32.742188 L 270.035156 32.1875 L 264.589844 46.140625 Z M 271.984375 27.234375 L 287.839844 27.683594 L 283.355469 14.648438 C 282.003906 10.6875 280.992188 7.417969 280.296875 4.839844 C 279.570313 7.855469 278.628906 10.808594 277.472656 13.722656 Z M 306.132813 48.886719 L 314.039063 3.023438 L 320.125 4.074219 L 313.144531 44.558594 L 335.691406 48.445313 L 334.765625 53.824219 Z M 348.234375 59.261719 L 362.757813 20.835938 L 348.40625 15.414063 L 350.335938 10.304688 L 384.8125 23.332031 L 382.882813 28.441406 L 368.53125 23.019531 L 354.011719 61.445313 Z M 374.664063 69.300781 L 399.367188 29.855469 L 404.601563 33.132813 L 394.421875 49.382813 L 414.804688 62.148438 L 424.984375 45.898438 L 430.21875 49.175781 L 405.515625 88.617188 L 400.28125 85.339844 L 411.910156 66.777344 L 391.523438 54.011719 L 379.898438 72.578125 Z M 440.878906 118.777344 L 478.429688 91.28125 L 483.882813 98.730469 L 463.804688 127.074219 C 461.929688 129.703125 460.511719 131.65625 459.554688 132.933594 C 461.234375 132.363281 463.738281 131.566406 467.050781 130.535156 L 499.785156 120.449219 L 504.65625 127.101563 L 467.105469 154.597656 L 463.609375 149.824219 L 495.023438 126.820313 L 455.585938 138.863281 L 452.308594 134.386719 L 476.363281 100.125 L 444.371094 123.550781 Z M 471.734375 164.605469 L 512.910156 142.914063 L 515.789063 148.375 L 474.613281 170.070313 Z M 493.074219 172.855469 L 495.488281 178.136719 C 493.371094 179.171875 491.777344 180.410156 490.691406 181.863281 C 489.617188 183.308594 488.992188 185.183594 488.816406 187.488281 C 488.648438 189.785156 489.003906 192.1875 489.882813 194.679688 C 490.664063 196.898438 491.679688 198.734375 492.941406 200.195313 C 494.203125 201.65625 495.554688 202.59375 497.003906 203.015625 C 498.449219 203.433594 499.851563 203.410156 501.203125 202.933594 C 502.570313 202.453125 503.625 201.632813 504.375 200.472656 C 505.117188 199.3125 505.511719 197.691406 505.566406 195.605469 C 505.601563 194.273438 505.398438 191.414063 504.945313 187.035156 C 504.492188 182.660156 504.410156 179.519531 504.695313 177.601563 C 505.0625 175.117188 505.882813 173.082031 507.148438 171.488281 C 508.40625 169.882813 510.054688 168.726563 512.070313 168.015625 C 514.296875 167.230469 516.59375 167.132813 518.957031 167.714844 C 521.332031 168.289063 523.4375 169.601563 525.292969 171.671875 C 527.144531 173.730469 528.59375 176.238281 529.632813 179.191406 C 530.78125 182.441406 531.269531 185.496094 531.09375 188.347656 C 530.929688 191.199219 530.058594 193.652344 528.488281 195.710938 C 526.925781 197.769531 524.871094 199.296875 522.332031 200.308594 L 519.933594 194.882813 C 522.597656 193.609375 524.335938 191.859375 525.136719 189.632813 C 525.949219 187.40625 525.753906 184.605469 524.5625 181.230469 C 523.324219 177.71875 521.777344 175.378906 519.921875 174.230469 C 518.070313 173.082031 516.234375 172.820313 514.414063 173.460938 C 512.839844 174.015625 511.746094 175.046875 511.125 176.542969 C 510.507813 178.023438 510.484375 181.304688 511.085938 186.398438 C 511.675781 191.496094 511.890625 195.066406 511.710938 197.101563 C 511.433594 200.0625 510.621094 202.472656 509.238281 204.328125 C 507.871094 206.175781 506.007813 207.511719 503.660156 208.339844 C 501.320313 209.164063 498.898438 209.273438 496.363281 208.660156 C 493.828125 208.050781 491.550781 206.707031 489.523438 204.605469 C 487.496094 202.507813 485.933594 199.898438 484.828125 196.761719 C 483.429688 192.796875 482.839844 189.273438 483.050781 186.1875 C 483.257813 183.09375 484.257813 180.386719 486.046875 178.042969 C 487.828125 175.695313 490.171875 173.972656 493.074219 172.855469 Z M 507.445313 217.179688 L 508.691406 222.851563 C 506.402344 223.417969 504.582031 224.292969 503.214844 225.480469 C 501.859375 226.671875 500.851563 228.371094 500.195313 230.582031 C 499.546875 232.796875 499.386719 235.21875 499.71875 237.839844 C 500.015625 240.171875 500.621094 242.179688 501.542969 243.875 C 502.46875 245.570313 503.59375 246.773438 504.917969 247.488281 C 506.246094 248.203125 507.621094 248.476563 509.039063 248.296875 C 510.480469 248.113281 511.683594 247.535156 512.664063 246.558594 C 513.632813 245.585938 514.359375 244.082031 514.855469 242.054688 C 515.171875 240.757813 515.574219 237.921875 516.054688 233.546875 C 516.539063 229.171875 517.117188 226.085938 517.804688 224.273438 C 518.683594 221.921875 519.917969 220.105469 521.488281 218.8125 C 523.0625 217.511719 524.917969 216.730469 527.035156 216.460938 C 529.375 216.164063 531.640625 216.550781 533.832031 217.617188 C 536.03125 218.679688 537.8125 220.410156 539.1875 222.824219 C 540.5625 225.226563 541.449219 227.984375 541.84375 231.089844 C 542.277344 234.507813 542.113281 237.597656 541.339844 240.351563 C 540.574219 243.101563 539.207031 245.316406 537.234375 246.996094 C 535.277344 248.675781 532.941406 249.738281 530.25 250.1875 L 529.050781 244.378906 C 531.925781 243.699219 533.992188 242.351563 535.246094 240.347656 C 536.507813 238.34375 536.90625 235.5625 536.457031 232.015625 C 535.988281 228.316406 534.96875 225.707031 533.398438 224.191406 C 531.832031 222.675781 530.089844 222.035156 528.175781 222.277344 C 526.523438 222.488281 525.234375 223.261719 524.308594 224.59375 C 523.394531 225.910156 522.679688 229.113281 522.191406 234.222656 C 521.695313 239.328125 521.148438 242.859375 520.546875 244.816406 C 519.648438 247.648438 518.34375 249.835938 516.605469 251.355469 C 514.875 252.875 512.773438 253.785156 510.300781 254.097656 C 507.839844 254.414063 505.453125 254.007813 503.101563 252.875 C 500.753906 251.742188 498.808594 249.945313 497.273438 247.464844 C 495.734375 244.984375 494.757813 242.109375 494.335938 238.808594 C 493.808594 234.636719 493.976563 231.066406 494.832031 228.097656 C 495.6875 225.117188 497.234375 222.683594 499.484375 220.769531 C 501.71875 218.847656 504.371094 217.65625 507.445313 217.179688 Z M 496.765625 265.25 L 543.304688 265.707031 L 543.246094 271.878906 L 496.707031 271.421875 Z M 519.757813 284.746094 C 527.339844 286.171875 532.894531 289.332031 536.421875 294.214844 C 539.945313 299.097656 541.097656 304.761719 539.886719 311.210938 C 539.089844 315.4375 537.367188 319.050781 534.714844 322.070313 C 532.066406 325.078125 528.769531 327.136719 524.828125 328.234375 C 520.894531 329.335938 516.636719 329.464844 512.070313 328.605469 C 507.4375 327.734375 503.460938 326.019531 500.164063 323.457031 C 496.851563 320.898438 494.582031 317.726563 493.351563 313.945313 C 492.113281 310.152344 491.871094 306.269531 492.617188 302.300781 C 493.429688 297.988281 495.195313 294.339844 497.910156 291.332031 C 500.621094 288.335938 503.9375 286.292969 507.863281 285.222656 C 511.78125 284.152344 515.746094 283.992188 519.757813 284.746094 Z M 518.476563 290.988281 C 512.972656 289.953125 508.359375 290.617188 504.640625 292.984375 C 500.921875 295.351563 498.640625 298.769531 497.800781 303.238281 C 496.941406 307.796875 497.835938 311.832031 500.476563 315.382813 C 503.121094 318.921875 507.378906 321.242188 513.257813 322.347656 C 516.972656 323.046875 520.339844 323.027344 523.34375 322.289063 C 526.347656 321.554688 528.84375 320.117188 530.820313 317.984375 C 532.796875 315.84375 534.074219 313.273438 534.640625 310.261719 C 535.445313 305.980469 534.667969 302.019531 532.308594 298.378906 C 529.949219 294.742188 525.34375 292.277344 518.476563 290.988281 Z M 486.828125 331.964844 L 529.414063 350.738281 L 526.863281 356.527344 L 483.585938 364.132813 L 517.011719 378.871094 L 514.625 384.285156 L 472.039063 365.507813 L 474.589844 359.71875 L 517.867188 352.113281 L 484.441406 337.375 Z M 486.828125 331.964844 "/>
</g>
</g>
</svg>
